MMMMMMMMMMMMMMMMMMMMMMMMMMMMMMMMMMMMMMMMMMMMMMMMMMMmddNMMMMMMMMM
MMMMMMMMMMMMMMMMMMMMMMMMMMMMMMMMMMMMMMMMMMMMMMdo:.     `:omMMMMM
MMMMMMMMMMMMMMMMMMMMMMMMMMMMMMMMMMMMMMMMMMMMs-            `-yNMM
MMMMMMMMMMMMMMMMMMMMMMMMMMMMMMMMMMMMMMMMMMm-     -ohmmhs/.   .yM
MMMMMMMMMMMMMMMMMMMMMMMMMMMMMMMMMMMMMMMMMm.    .yNmhyymMMNs`   -
MMMMMMMMMMMMMMMMMMMMMMMMMMNMMMMMMMMMMMMMm.   `oh+.    `-sNMh`   
MMMMMMMMMMMMMMMMMMMMMMMMMd-hMMMMMMMMMMMM/   -y/        :`/MMs   
MMMMMMMMMMMMMMMMMNyMMMMMMd``yMMMMMMMMMMd    -`        /m:`dMN-  
MMMMMMMMMMMMMMMMMm sMMMMMd` `yMMMMMMMMMs              `.` hMM/  
MMMMMMMMMMM+hMMMMm `sMMMMd`  `hMMMMMMMMo      `      `+yy-hMM+  
MMMMMMMMMMM:.mMMMm   dMMMd`   .mMMMMMMM/     +Nh:   /mMNd-NMM/  
MMMMMMMMMMM: /MMMm   -MMMd`    yMMMMMMM+     mMN-  +Nd/.`+Mm+   
MMh+::omMMM: `hMMm    hMMd`    /MMMMMMMo    -NMy  -Ns`   -.     
Ms     `dMM-  oMMm    +MMd`    -NMMMMMMh    .NM/  /m.        `` 
Ms     `dMM-  +MMm    :MMd`    .NMMMMMMN.    dM+  -d.     .odN- 
MMh+::omMMM-  +MMm    /MMd`    .NMMMMMMMy    -Nh`  o-   `oNm/`  
MMMMMMMMMMM:  yMMm    +MMd`    -NMMMMMMMMs    -hs`  /`  :MMo    
MMMMMMMMMMM- -NMMm    dMMd`    :MMMMMMMMMNh.    .`      .mMm`   
MMMMMMMMMMN-`hMMMm   :MMMd`    oMMMMMMMMMMMNo`         . :NM/   
MMMMMMMMMMN-oMMMMm  `dMMMd`   .mMMMMMMMMMMMMMm+`       sooMm-   
MMMMMMMMMMNyMMMMMm  sMMMMd`  `yMMMMMMMMMMMMMMMMd:      `+o/`    
MMMMMMMMMMMMMMMMMm`oMMMMMd`  sMMMMMMMMMMMMMMMMMMMy`             
MMMMMMMMMMMMMMMMMNhMMMMMMd``sMMMMMMMMMMMMMMMMMMMMMd.            
MMMMMMMMMMMMMMMMMMMMMMMMMd:dMMMMMMMMMMMMMMMMMMMMMMMh`           
MMMMMMMMMMMMMMMMMMMMMMMMMMMMMMMMMMMMMMMMMMMMMMMMMMMMy`          
MMMMMMMMMMMMMMMMMMMMMMMMMMMMMMMMMMMMMMMMMMMMMMMMMMMMMh.        /
MMMMMMMMMMMMMMMMMMMMMMMMMMMMMMMMMMMMMMMMMMMMMMMMMMMMMMNs:`  `/dM
MMMMMMMMMMMMMMMMMMMMMMMMMMMMMMMMMMMMMMMMMMMMMMMMMMMMMMMMMMNNMMMM

Doug.Stanhope.Oslo.Burning.the.Bridge.to.Nowhere.DVDRip.XviD.MP3
 
http://www.imdb.com/title/tt1935193/

Oslo: Burning the Bridge to Nowhere (2011)
78 min  -  Comedy   -  3 May 2011 (USA)
   -/10  
(awaiting 5 votes) 2 reviews
Director: Bjorn Opsahl
Writer: Doug Stanhope
Stars: Doug Stanhope

Doug.Stanhope.Oslo.Burning.the.Bridge.to.Nowhere.DVDRip.XviD.MP3

General
Complete name                    : D:\Downloads\Doug.Stanhope.Oslo.Burning.the.Bridge.to.Nowhere.DVDRip.XviD.MP3-kroimpa\Doug.Stanhope.Oslo.Burning.the.Bridge.to.Nowhere.DVDRip.XviD.MP3-kroimpa.avi
Format                           : AVI
Format/Info                      : Audio Video Interleave
File size                        : 704 MiB
Duration                         : 1h 29mn
Overall bit rate                 : 1 104 Kbps
Writing application              : VirtualDubMod 1.5.10.2 (build 2540/release)
Writing library                  : VirtualDubMod build 2540/release

Video
ID                               : 0
Format                           : MPEG-4 Visual
Format profile                   : Advanced Simple@L5
Format settings, BVOP            : 3
Format settings, QPel            : No
Format settings, GMC             : No warppoints
Format settings, Matrix          : Default (H.263)
Codec ID                         : XVID
Codec ID/Hint                    : XviD
Duration                         : 1h 29mn
Bit rate                         : 964 Kbps
Width                            : 720 pixels
Height                           : 408 pixels
Display aspect ratio             : 16:9
Frame rate                       : 29.970 fps
Color space                      : YUV
Chroma subsampling               : 4:2:0
Bit depth                        : 8 bits
Scan type                        : Progressive
Compression mode                 : Lossy
Bits/(Pixel*Frame)               : 0.110
Stream size                      : 615 MiB (87%)
Writing library                  : XviD 1.2.1 (UTC 2008-12-04)

Audio
ID                               : 1
Format                           : MPEG Audio
Format version                   : Version 1
Format profile                   : Layer 3
Codec ID                         : 55
Codec ID/Hint                    : MP3
Duration                         : 1h 29mn
Bit rate mode                    : Constant
Bit rate                         : 128 Kbps
Channel(s)                       : 2 channels
Sampling rate                    : 48.0 KHz
Compression mode                 : Lossy
Stream size                      : 81.6 MiB (12%)
Alignment                        : Aligned on interleaves
Interleave, duration             : 33 ms (1.00 video frame)
Interleave, preload duration     : 504 ms
Writing library                  : LAME3.98r
Encoding settings                : -m s -V 4 -q 0 -lowpass 17 -b 128